/* XPM */
static char * hide_active_xpm[] = {
"11 11 3 1",
" 	c None",
".	c #2D2D2D",
"+	c #3F3F3F",
"...........",
"...........",
"...........",
"...........",
"...+++++...",
"...+++++...",
"...+++++...",
"...........",
"...........",
"...........",
"..........."};
