/* XPM */
static char * maximize_inactive_xpm[] = {
"11 11 3 1",
" 	c None",
".	c #333333",
"+	c #666666",
"...........",
"...........",
"..+++++++..",
"..+++++++..",
"..++...++..",
"..++...++..",
"..++...++..",
"..+++++++..",
"..+++++++..",
"...........",
"..........."};
